<svg width="211" height="66" viewBox="0 0 211 66" fill="none" xmlns="http://www.w3.org/2000/svg">
<g clip-path="url(#clip0_355_1050)">
<path d="M12.7639 39.0519C12.0989 37.9731 11.9701 35.6645 11.9272 33.2264C11.9272 31.9319 11.8629 30.1195 11.8629 28.0267V24.0352V0.604004H0.514876V1.16497C2.53135 1.44546 3.66829 1.61806 4.78379 2.80472C5.68476 3.7109 5.74912 7.09828 5.74912 9.77367V24.0999C5.74912 27.4441 5.64186 30.9394 5.64186 32.536C5.64186 34.9093 5.29863 37.8005 4.63362 38.6419C3.56103 39.8286 1.86634 40.519 0.0214844 40.7995V41.3605H18.0196V40.7995C14.9305 40.6269 13.4718 40.1306 12.7853 39.0519H12.7639Z" fill="#E1CDAD"/>
<path d="M31.7916 0.604004H13.8364V1.51018C14.9305 1.46703 16.3463 1.38073 17.3331 1.38073C21.7736 1.38073 25.3131 1.83382 26.6217 2.45951C29.2603 3.75405 31.9632 6.53731 35.0523 10.3778L35.61 10.0973L31.7916 0.604004Z" fill="#E1CDAD"/>
<path d="M19.135 19.6336C17.8265 19.9141 15.5097 20.0436 13.8364 20.0652V20.9713H14.5872C21.7307 20.9713 23.9188 23.2368 25.6778 30.0331H26.3428V11.8232H25.6778C25.0557 15.5558 24.5623 18.447 19.1565 19.6336H19.135Z" fill="#E1CDAD"/>
<path d="M48.4168 33.1401C48.4168 33.1401 48.4168 33.1185 48.4168 33.097C48.4168 30.551 48.3524 28.5661 48.3524 26.5811V16.2895C48.3524 12.8374 48.4168 10.1189 48.5241 6.14895C48.6957 2.07115 52.4068 1.44546 54.4233 1.16497V0.604004H36.4681V1.16497C38.4417 1.38073 40.2866 2.00642 41.3591 3.32254C42.0242 4.05611 42.1958 5.86847 42.1958 7.85343V24.0999C42.1958 27.4441 42.0885 30.9394 42.0885 32.536C42.0885 34.9093 41.7453 37.8005 41.0159 38.6419C39.9433 39.8286 37.9269 40.519 36.0605 40.7995V41.3605H48.3953V33.1401H48.4168Z" fill="#E1CDAD"/>
<path d="M73.7297 29.5371C71.9277 34.068 70.1258 38.0164 64.2265 39.6777C61.6309 40.4113 57.2547 40.5191 56.0105 40.5191C53.9511 40.5191 51.7416 40.1308 50.3687 39.6561V41.3606H72.2066L74.2874 29.7097L73.7297 29.5371Z" fill="#E1CDAD"/>
<path d="M136.391 1.079C141.153 2.0499 144.371 6.71025 145.958 11.1333H146.58V0.66906H145.958C145.336 1.57524 144.499 2.69717 144.263 2.69717C144.07 2.69717 141.818 0.474879 136.369 0.0649414V1.079H136.391Z" fill="#E1CDAD"/>
<path d="M133.087 40.9289C127.23 40.4758 123.155 35.3408 121.374 30.0332H120.816L120.988 41.2957H121.503C122.125 40.4543 123.026 39.3107 123.24 39.3107C123.627 39.3107 126.372 41.533 133.087 41.7272V40.9073V40.9289Z" fill="#E1CDAD"/>
<path d="M140.617 19.3965C137.742 18.3178 135.554 17.7568 132.572 16.5701C128.754 15.1461 126.094 12.8807 126.094 8.8676C126.094 3.8189 129.591 1.07878 134.095 0.906179V0C127.102 0.172605 121.074 3.9052 121.074 11.8235C121.074 16.6348 124.614 20.54 128.497 22.0719C131.929 23.4312 133.109 23.6038 136.777 25.0062C140.381 26.3655 143.255 28.1778 143.255 32.4714C143.255 37.218 140.123 40.3465 135.361 40.8643V41.7058C143.17 41.2743 148.661 37.1533 148.661 30.206C148.661 24.8336 145.744 21.2736 140.617 19.3965Z" fill="#E1CDAD"/>
<path d="M96.2971 40.7565C87.5662 40.0445 83.1471 30.9396 83.1471 21.101C83.1471 11.2625 87.1586 1.68293 96.2971 1.03566V0.10791C85.2494 0.798332 76.1753 8.56557 76.1753 20.9284C76.1753 33.2913 85.2065 41.2096 96.2971 41.6195V40.7349V40.7565Z" fill="#E1CDAD"/>
<path d="M98.2495 0.0649414V1.05742C107.109 1.791 111.399 11.8884 111.399 20.756C111.399 29.6236 107.066 40.131 98.2495 40.7567V41.6197C109.297 41.0803 118.371 32.4932 118.371 20.7129C118.371 9.9466 110.82 0.237547 98.2495 0.0649414Z" fill="#E1CDAD"/>
<path d="M155.89 42.1375C158.034 42.1375 159.773 40.3891 159.773 38.2323C159.773 36.0756 158.034 34.3271 155.89 34.3271C153.746 34.3271 152.007 36.0756 152.007 38.2323C152.007 40.3891 153.746 42.1375 155.89 42.1375Z" fill="#E1CDAD"/>
<path d="M167.217 21.101C167.217 11.6725 171.228 1.68293 180.367 1.03566V0.10791C169.319 0.798332 160.245 8.56557 160.245 20.9284C160.245 33.2913 169.276 41.2096 180.367 41.6195V40.7349C171.636 40.0229 167.217 30.918 167.217 21.0795V21.101Z" fill="#E1CDAD"/>
<path d="M206.045 39.3977C203.514 40.0018 200.682 38.9446 198.537 37.499C197.722 36.9596 196.971 36.2908 196.22 35.6219C200.038 31.9109 202.441 26.7112 202.441 20.6484C202.441 9.88215 194.868 0.173094 182.319 0.000488281V0.99297C191.179 1.72654 195.469 11.824 195.469 20.6916C195.469 24.7694 194.611 29.0414 192.895 32.5798C191.5 31.652 189.763 31.0263 187.982 30.8969C183.885 30.5948 180.002 33.2055 177.342 37.0891C179.53 34.8021 182.92 33.5722 186.352 34.3705C187.661 34.6726 189.076 35.4925 190.364 36.485C188.304 38.8583 185.644 40.4549 182.319 40.6922V41.5552C186.052 41.3826 189.57 40.2607 192.573 38.4268C192.809 38.6641 193.045 38.9014 193.26 39.1388C195.061 41.059 198.151 42.9145 201.476 42.9792C206.367 43.044 209.456 39.8292 210.979 35.8161C209.799 37.7363 208.104 38.9662 206.023 39.3977H206.045Z" fill="#E1CDAD"/>
<path d="M17.9336 61.8789L18.1481 63.0008L18.427 61.9221L19.993 56.5713H20.5507L22.0952 61.9221L22.3527 63.0008L22.5886 61.8573L23.8972 56.5713H24.5193L22.6744 63.8207H22.0952L20.4649 58.1463L20.2718 57.4343L20.1002 58.1463L18.427 63.8207H17.8478L16.0029 56.5713H16.625L17.9336 61.8573V61.8789Z" fill="#E1CDAD"/>
<path d="M27.6301 63.9289C27.1797 63.9289 26.7721 63.821 26.3859 63.5837C25.9998 63.3464 25.7209 63.0443 25.5279 62.6344C25.3133 62.2244 25.2275 61.7714 25.2275 61.2751V61.0594C25.2275 60.5415 25.3348 60.0669 25.5279 59.6569C25.7209 59.247 25.9998 58.9234 26.3645 58.686C26.7292 58.4487 27.1153 58.3408 27.5229 58.3408C28.1664 58.3408 28.6813 58.5566 29.0674 59.0097C29.4535 59.4628 29.6466 60.0669 29.6466 60.8436V61.1672H25.8282V61.2751C25.8282 61.8792 25.9998 62.397 26.343 62.807C26.6863 63.2169 27.1368 63.4111 27.6516 63.4111C27.9734 63.4111 28.2522 63.3464 28.4882 63.2385C28.7242 63.1306 28.9602 62.9364 29.1532 62.6775L29.5179 62.958C29.0889 63.5837 28.4453 63.9073 27.6301 63.9073V63.9289ZM27.5229 58.8586C27.0724 58.8586 26.7077 59.0312 26.3859 59.3549C26.0642 59.6785 25.8925 60.1316 25.8282 60.671H29.046V60.6063C29.046 60.0884 28.8743 59.6569 28.5955 59.3333C28.3166 59.0097 27.9519 58.8371 27.5014 58.8371L27.5229 58.8586Z" fill="#E1CDAD"/>
<path d="M37.2834 61.7926H34.0013L33.2505 63.8207H32.6069L35.3313 56.5713H35.9105L38.6349 63.8207H37.9913L37.2405 61.7926H37.2834ZM34.1944 61.2748H37.0904L35.6531 57.3264L34.2158 61.2748H34.1944Z" fill="#E1CDAD"/>
<path d="M42.067 58.9445C41.9383 58.923 41.8096 58.9014 41.6594 58.9014C41.2948 58.9014 40.973 59.0093 40.7156 59.2035C40.4581 59.4192 40.2865 59.7213 40.1578 60.1096V63.7991H39.5786V58.4051H40.1578V59.2682C40.4796 58.6209 40.9944 58.3188 41.6809 58.3188C41.8525 58.3188 41.9812 58.3404 42.067 58.3836V58.923V58.9445Z" fill="#E1CDAD"/>
<path d="M45.0701 63.9289C44.6196 63.9289 44.212 63.821 43.8259 63.5837C43.4397 63.3464 43.1609 63.0443 42.9678 62.6344C42.7533 62.2244 42.6675 61.7714 42.6675 61.2751V61.0594C42.6675 60.5415 42.7747 60.0669 42.9678 59.6569C43.1609 59.247 43.4397 58.9234 43.8044 58.686C44.1691 58.4487 44.5552 58.3408 44.9628 58.3408C45.6064 58.3408 46.1212 58.5566 46.5074 59.0097C46.8935 59.4628 47.0866 60.0669 47.0866 60.8436V61.1672H43.2681V61.2751C43.2681 61.8792 43.4397 62.397 43.783 62.807C44.1262 63.2169 44.5767 63.4111 45.0915 63.4111C45.4133 63.4111 45.6922 63.3464 45.9282 63.2385C46.1641 63.1306 46.4001 62.9364 46.5932 62.6775L46.9578 62.958C46.5288 63.5837 45.8853 63.9073 45.0701 63.9073V63.9289ZM44.9628 58.8586C44.5123 58.8586 44.1477 59.0312 43.8259 59.3549C43.5041 59.6785 43.3325 60.1316 43.2681 60.671H46.4859V60.6063C46.4859 60.0884 46.3143 59.6569 46.0354 59.3333C45.7565 59.0097 45.3919 58.8371 44.9414 58.8371L44.9628 58.8586Z" fill="#E1CDAD"/>
<path d="M54.0799 63.821C54.0156 63.6484 53.9727 63.4111 53.9727 63.0659C53.7581 63.3464 53.5007 63.5406 53.1789 63.6916C52.8572 63.8426 52.5139 63.9073 52.1492 63.9073C51.6344 63.9073 51.2268 63.7563 50.905 63.4758C50.5833 63.1953 50.4331 62.8286 50.4331 62.3755C50.4331 61.8577 50.6476 61.4261 51.0767 61.1241C51.5057 60.822 52.1063 60.671 52.9001 60.671H53.9727V60.0669C53.9727 59.6785 53.8439 59.3765 53.6294 59.1607C53.3935 58.9449 53.0502 58.8371 52.5997 58.8371C52.1922 58.8371 51.8489 58.9449 51.5701 59.1607C51.2912 59.3765 51.1625 59.6354 51.1625 59.9374H50.5618C50.5618 59.5059 50.7549 59.1391 51.1625 58.8155C51.5486 58.4918 52.042 58.3408 52.6212 58.3408C53.2004 58.3408 53.6938 58.4918 54.037 58.7939C54.3802 59.096 54.5519 59.5059 54.5733 60.0453V62.5912C54.5733 63.109 54.6377 63.4974 54.7449 63.7563V63.821H54.1014H54.0799ZM52.2351 63.3895C52.6212 63.3895 52.9859 63.3032 53.2862 63.109C53.608 62.9149 53.8225 62.656 53.9727 62.3323V61.1457H52.9215C52.3209 61.1457 51.8704 61.2535 51.5271 61.4693C51.1839 61.685 51.0338 61.9655 51.0338 62.3323C51.0338 62.6344 51.141 62.8933 51.377 63.0875C51.613 63.2816 51.8918 63.3895 52.2565 63.3895H52.2351Z" fill="#E1CDAD"/>
<path d="M58.7349 63.8207V56.5713H60.8586C61.6309 56.5713 62.2101 56.7223 62.6176 57.046C63.0252 57.3696 63.2183 57.8443 63.2183 58.47C63.2183 58.8367 63.111 59.1819 62.918 59.4409C62.7249 59.7213 62.446 59.9155 62.0813 60.045C62.5104 60.1313 62.8322 60.347 63.0896 60.6707C63.347 60.9943 63.4757 61.3611 63.4757 61.7926C63.4757 62.4399 63.2612 62.9361 62.8536 63.3029C62.446 63.6697 61.8668 63.8423 61.1375 63.8423H58.7349V63.8207ZM59.357 59.8292H61.0302C61.5451 59.8292 61.9312 59.6998 62.2101 59.4624C62.4889 59.2251 62.6176 58.9015 62.6176 58.4484C62.6176 57.9737 62.4675 57.6501 62.1886 57.4127C61.9097 57.197 61.4592 57.0891 60.88 57.0891H59.357V59.8292ZM59.357 60.347V63.3029H61.1804C61.6952 63.3029 62.1243 63.1734 62.4246 62.893C62.7249 62.6341 62.8751 62.2457 62.8751 61.7926C62.8751 61.3395 62.7249 60.9943 62.446 60.7354C62.1672 60.4765 61.7596 60.347 61.2447 60.347H59.3784H59.357Z" fill="#E1CDAD"/>
<path d="M64.5054 61.0594C64.5054 60.5415 64.6126 60.0669 64.8057 59.6569C64.9988 59.247 65.2776 58.9234 65.6423 58.686C66.007 58.4487 66.4146 58.3408 66.8865 58.3408C67.5944 58.3408 68.1736 58.5997 68.6241 59.096C69.0746 59.5922 69.2891 60.2611 69.2891 61.1025V61.232C69.2891 61.7498 69.1819 62.2244 68.9888 62.6344C68.7957 63.0443 68.5169 63.3679 68.1522 63.6053C67.7875 63.8426 67.3799 63.9505 66.908 63.9505C66.2001 63.9505 65.6209 63.6916 65.1704 63.1953C64.7199 62.6991 64.5054 62.0303 64.5054 61.1888V61.0594ZM65.0846 61.2104C65.0846 61.8577 65.2562 62.3755 65.578 62.7854C65.8997 63.1953 66.3502 63.4111 66.8865 63.4111C67.4228 63.4111 67.8519 63.1953 68.1951 62.7854C68.5169 62.3755 68.6885 61.8361 68.6885 61.1457V61.0378C68.6885 60.6278 68.6027 60.2395 68.4525 59.9158C68.3023 59.5922 68.0878 59.3117 67.809 59.1175C67.5301 58.9234 67.2298 58.8371 66.8651 58.8371C66.3288 58.8371 65.8997 59.0528 65.578 59.4628C65.2562 59.8727 65.0846 60.4337 65.0846 61.1025V61.2104Z" fill="#E1CDAD"/>
<path d="M73.9444 63.1518C73.5798 63.6696 73.022 63.9286 72.2283 63.9286C71.6491 63.9286 71.2201 63.7559 70.9197 63.4323C70.6194 63.1087 70.4692 62.6124 70.4692 61.9436V58.4483H71.0484V61.8789C71.0484 62.9145 71.456 63.4107 72.2926 63.4107C73.1293 63.4107 73.687 63.044 73.923 62.332V58.4268H74.5236V63.8207H73.9444V63.1303V63.1518Z" fill="#E1CDAD"/>
<path d="M76.9908 57.0679V58.4487H78.1063V58.945H76.9908V62.5481C76.9908 62.8502 77.0551 63.0659 77.1624 63.2169C77.2697 63.368 77.4413 63.4327 77.6987 63.4327C77.806 63.4327 77.9561 63.4327 78.1706 63.3895V63.8642C78.0419 63.9289 77.8274 63.9505 77.57 63.9505C77.1624 63.9505 76.8621 63.8426 76.6905 63.6053C76.4974 63.368 76.4116 63.0228 76.4116 62.5481V58.945H75.4248V58.4487H76.4116V57.0679H77.0122H76.9908Z" fill="#E1CDAD"/>
<path d="M79.3071 56.8952C79.3071 56.7873 79.35 56.6794 79.4144 56.6147C79.4787 56.5284 79.586 56.5068 79.7147 56.5068C79.8434 56.5068 79.9507 56.55 80.015 56.6147C80.0794 56.701 80.1223 56.7873 80.1223 56.8952C80.1223 57.0031 80.0794 57.111 80.015 57.1757C79.9507 57.262 79.8434 57.2836 79.7147 57.2836C79.586 57.2836 79.5002 57.2404 79.4144 57.1757C79.35 57.0894 79.3071 57.0031 79.3071 56.8952ZM79.9936 63.821H79.3929V58.4271H79.9936V63.821Z" fill="#E1CDAD"/>
<path d="M81.3667 61.0809C81.3667 60.2395 81.5598 59.5706 81.9244 59.0744C82.2891 58.5781 82.804 58.3408 83.4475 58.3408C84.1769 58.3408 84.7132 58.6213 85.0993 59.1823V58.4487H85.6785V65.9139H85.0779V63.1738C84.6917 63.6916 84.134 63.9505 83.4261 63.9505C82.804 63.9505 82.2891 63.6916 81.9244 63.1953C81.5383 62.6991 81.3667 62.0303 81.3667 61.1888V61.1025V61.0809ZM81.9673 61.1888C81.9673 61.8792 82.0961 62.4402 82.3964 62.8286C82.6753 63.2169 83.0614 63.4327 83.5548 63.4327C84.2627 63.4327 84.7775 63.1306 85.0993 62.5049V59.8727C84.9491 59.5491 84.7346 59.3117 84.4772 59.1391C84.2198 58.9665 83.9195 58.8802 83.5548 58.8802C83.0614 58.8802 82.6753 59.0744 82.3964 59.4843C82.1175 59.8943 81.9673 60.4552 81.9673 61.232V61.1888Z" fill="#E1CDAD"/>
<path d="M90.7198 63.1518C90.3551 63.6696 89.7974 63.9286 89.0037 63.9286C88.4245 63.9286 87.9954 63.7559 87.6951 63.4323C87.3948 63.1087 87.2446 62.6124 87.2446 61.9436V58.4483H87.8238V61.8789C87.8238 62.9145 88.2314 63.4107 89.068 63.4107C89.9047 63.4107 90.4624 63.044 90.6984 62.332V58.4268H91.299V63.8207H90.7198V63.1303V63.1518Z" fill="#E1CDAD"/>
<path d="M94.9026 63.9289C94.4521 63.9289 94.0445 63.821 93.6584 63.5837C93.2723 63.3464 92.9934 63.0443 92.8003 62.6344C92.5858 62.2244 92.5 61.7714 92.5 61.2751V61.0594C92.5 60.5415 92.6073 60.0669 92.8003 59.6569C92.9934 59.247 93.2723 58.9234 93.637 58.686C94.0016 58.4487 94.3878 58.3408 94.7953 58.3408C95.4389 58.3408 95.9537 58.5566 96.3399 59.0097C96.726 59.4628 96.9191 60.0669 96.9191 60.8436V61.1672H93.1007V61.2751C93.1007 61.8792 93.2723 62.397 93.6155 62.807C93.9587 63.2169 94.4092 63.4111 94.9241 63.4111C95.2458 63.4111 95.5247 63.3464 95.7607 63.2385C95.9966 63.1306 96.2326 62.9364 96.4257 62.6775L96.7904 62.958C96.3613 63.5837 95.7178 63.9073 94.9026 63.9073V63.9289ZM94.7953 58.8586C94.3449 58.8586 93.9802 59.0312 93.6584 59.3549C93.3366 59.6785 93.165 60.1316 93.1007 60.671H96.3184V60.6063C96.3184 60.0884 96.1468 59.6569 95.8679 59.3333C95.5891 59.0097 95.2244 58.8371 94.7739 58.8371L94.7953 58.8586Z" fill="#E1CDAD"/>
<path d="M104.577 61.7926H101.295L100.544 63.8207H99.9009L102.625 56.5713H103.204L105.929 63.8207H105.285L104.534 61.7926H104.577ZM101.488 61.2748H104.384L102.947 57.3264L101.51 61.2748H101.488Z" fill="#E1CDAD"/>
<path d="M106.637 61.0809C106.637 60.2395 106.83 59.5706 107.194 59.0744C107.559 58.5781 108.074 58.3408 108.718 58.3408C109.447 58.3408 110.005 58.6429 110.391 59.2254V58.4487H110.97V63.7347C110.97 64.4252 110.777 64.9861 110.391 65.3745C110.005 65.7844 109.49 65.9786 108.825 65.9786C108.46 65.9786 108.095 65.8923 107.752 65.7197C107.409 65.5471 107.152 65.3313 106.958 65.0509L107.28 64.6841C107.709 65.2019 108.203 65.4608 108.782 65.4608C109.275 65.4608 109.661 65.3098 109.94 65.0293C110.219 64.7272 110.369 64.3173 110.369 63.7995V63.1306C109.983 63.67 109.447 63.9289 108.718 63.9289C108.095 63.9289 107.602 63.67 107.216 63.1738C106.83 62.6775 106.658 62.0087 106.658 61.1672V61.0809H106.637ZM107.237 61.1888C107.237 61.8792 107.366 62.4186 107.645 62.807C107.924 63.1953 108.31 63.4111 108.803 63.4111C109.533 63.4111 110.048 63.0875 110.348 62.4186V59.9158C110.219 59.5706 110.005 59.3117 109.747 59.1175C109.49 58.9449 109.168 58.8371 108.803 58.8371C108.31 58.8371 107.924 59.0312 107.645 59.4196C107.366 59.808 107.237 60.3905 107.237 61.1672V61.1888Z" fill="#E1CDAD"/>
<path d="M114.574 63.9289C114.123 63.9289 113.716 63.821 113.33 63.5837C112.944 63.3464 112.665 63.0443 112.472 62.6344C112.257 62.2244 112.171 61.7714 112.171 61.2751V61.0594C112.171 60.5415 112.279 60.0669 112.472 59.6569C112.665 59.247 112.944 58.9234 113.308 58.686C113.673 58.4487 114.059 58.3408 114.467 58.3408C115.11 58.3408 115.625 58.5566 116.011 59.0097C116.397 59.4628 116.59 60.0669 116.59 60.8436V61.1672H112.772V61.2751C112.772 61.8792 112.944 62.397 113.287 62.807C113.63 63.2169 114.081 63.4111 114.595 63.4111C114.917 63.4111 115.196 63.3464 115.432 63.2385C115.668 63.1306 115.904 62.9364 116.097 62.6775L116.462 62.958C116.033 63.5837 115.389 63.9073 114.574 63.9073V63.9289ZM114.467 58.8586C114.016 58.8586 113.652 59.0312 113.33 59.3549C113.008 59.6785 112.836 60.1316 112.772 60.671H115.99V60.6063C115.99 60.0884 115.818 59.6569 115.539 59.3333C115.26 59.0097 114.896 58.8371 114.445 58.8371L114.467 58.8586Z" fill="#E1CDAD"/>
<path d="M118.307 58.4486V59.3764C118.521 59.0527 118.779 58.7938 119.079 58.6212C119.379 58.4486 119.701 58.3623 120.066 58.3623C120.645 58.3623 121.074 58.5349 121.353 58.8585C121.632 59.1822 121.782 59.6784 121.782 60.3257V63.8641H121.203V60.3257C121.203 59.851 121.096 59.4842 120.902 59.2469C120.709 59.0096 120.388 58.9017 119.937 58.9017C119.572 58.9017 119.251 59.0096 118.972 59.2469C118.693 59.4842 118.478 59.7863 118.35 60.1747V63.8641H117.771V58.4702H118.328L118.307 58.4486Z" fill="#E1CDAD"/>
<path d="M125.3 63.4325C125.708 63.4325 126.051 63.3246 126.33 63.0873C126.609 62.85 126.759 62.5479 126.78 62.1811H127.36C127.36 62.5047 127.231 62.8068 127.059 63.0873C126.888 63.3678 126.63 63.562 126.308 63.713C125.987 63.864 125.665 63.9503 125.3 63.9503C124.592 63.9503 124.035 63.713 123.627 63.2167C123.219 62.7205 123.005 62.0732 123.005 61.2318V61.0592C123.005 60.5198 123.091 60.0667 123.284 59.6568C123.477 59.2468 123.734 58.9232 124.077 58.7074C124.421 58.4917 124.828 58.3838 125.279 58.3838C125.858 58.3838 126.351 58.5564 126.738 58.9016C127.124 59.2468 127.317 59.7215 127.36 60.2825H126.78C126.759 59.8509 126.609 59.5273 126.33 59.2684C126.051 59.0095 125.708 58.88 125.279 58.88C124.742 58.88 124.335 59.0742 124.035 59.4626C123.734 59.8509 123.584 60.3903 123.584 61.1023V61.2749C123.584 61.9654 123.734 62.5047 124.035 62.8931C124.335 63.2815 124.742 63.4757 125.279 63.4757L125.3 63.4325Z" fill="#E1CDAD"/>
<path d="M130.234 62.9792L131.8 58.4483H132.443L130.148 64.7484L130.019 65.0289C129.719 65.6762 129.268 65.9998 128.668 65.9998C128.518 65.9998 128.367 65.9782 128.217 65.9351V65.4389L128.518 65.4604C128.818 65.4604 129.032 65.3957 129.226 65.2447C129.397 65.0936 129.547 64.8563 129.676 64.5111L129.933 63.7775L127.917 58.4268H128.561L130.234 62.9577V62.9792Z" fill="#E1CDAD"/>
<path d="M135.79 56.8952C135.79 56.7873 135.833 56.6794 135.897 56.6147C135.962 56.5284 136.069 56.5068 136.198 56.5068C136.326 56.5068 136.434 56.55 136.498 56.6147C136.562 56.701 136.605 56.7873 136.605 56.8952C136.605 57.0031 136.562 57.111 136.498 57.1757C136.434 57.262 136.326 57.2836 136.198 57.2836C136.069 57.2836 135.983 57.2404 135.897 57.1757C135.833 57.0894 135.79 57.0031 135.79 56.8952ZM136.498 63.821H135.897V58.4271H136.498V63.821Z" fill="#E1CDAD"/>
<path d="M138.665 58.4486V59.3764C138.879 59.0527 139.137 58.7938 139.437 58.6212C139.737 58.4486 140.059 58.3623 140.424 58.3623C141.003 58.3623 141.432 58.5349 141.711 58.8585C141.99 59.1822 142.14 59.6784 142.14 60.3257V63.8641H141.561V60.3257C141.561 59.851 141.453 59.4842 141.26 59.2469C141.067 59.0096 140.746 58.9017 140.295 58.9017C139.93 58.9017 139.609 59.0096 139.33 59.2469C139.051 59.4842 138.836 59.7863 138.708 60.1747V63.8641H138.128V58.4702H138.686L138.665 58.4486Z" fill="#E1CDAD"/>
<path d="M148.961 60.8001H146.859V63.8207H146.237V56.5713H148.575C149.347 56.5713 149.948 56.7655 150.377 57.1323C150.806 57.499 151.021 58.0384 151.021 58.7073C151.021 59.1604 150.892 59.5703 150.613 59.9371C150.334 60.2823 149.969 60.5412 149.519 60.6707L151.321 63.756V63.8207H150.677L148.94 60.8001H148.961ZM146.88 60.2823H148.747C149.262 60.2823 149.669 60.1313 149.991 59.8508C150.291 59.5487 150.463 59.1819 150.463 58.7073C150.463 58.1895 150.291 57.8011 149.969 57.5206C149.648 57.2401 149.197 57.0891 148.618 57.0891H146.902V60.2823H146.88Z" fill="#E1CDAD"/>
<path d="M154.646 63.9289C154.196 63.9289 153.788 63.821 153.402 63.5837C153.016 63.3464 152.737 63.0443 152.544 62.6344C152.329 62.2244 152.244 61.7714 152.244 61.2751V61.0594C152.244 60.5415 152.351 60.0669 152.544 59.6569C152.737 59.247 153.016 58.9234 153.381 58.686C153.745 58.4487 154.131 58.3408 154.539 58.3408C155.183 58.3408 155.697 58.5566 156.084 59.0097C156.47 59.4628 156.663 60.0669 156.663 60.8436V61.1672H152.844V61.2751C152.844 61.8792 153.016 62.397 153.359 62.807C153.702 63.2169 154.153 63.4111 154.668 63.4111C154.989 63.4111 155.268 63.3464 155.504 63.2385C155.74 63.1306 155.976 62.9364 156.169 62.6775L156.534 62.958C156.105 63.5837 155.461 63.9073 154.646 63.9073V63.9289ZM154.539 58.8586C154.089 58.8586 153.724 59.0312 153.402 59.3549C153.08 59.6785 152.909 60.1316 152.844 60.671H156.062V60.6063C156.062 60.0884 155.89 59.6569 155.612 59.3333C155.333 59.0097 154.968 58.8371 154.518 58.8371L154.539 58.8586Z" fill="#E1CDAD"/>
<path d="M161.189 63.821C161.124 63.6484 161.082 63.4111 161.082 63.0659C160.867 63.3464 160.61 63.5406 160.288 63.6916C159.966 63.8426 159.623 63.9073 159.258 63.9073C158.743 63.9073 158.336 63.7563 158.014 63.4758C157.692 63.1953 157.542 62.8286 157.542 62.3755C157.542 61.8577 157.757 61.4261 158.186 61.1241C158.615 60.822 159.215 60.671 160.009 60.671H161.082V60.0669C161.082 59.6785 160.953 59.3765 160.738 59.1607C160.502 58.9449 160.159 58.8371 159.709 58.8371C159.301 58.8371 158.958 58.9449 158.679 59.1607C158.4 59.3765 158.271 59.6354 158.271 59.9374H157.671C157.671 59.5059 157.864 59.1391 158.271 58.8155C158.657 58.4918 159.151 58.3408 159.73 58.3408C160.309 58.3408 160.803 58.4918 161.146 58.7939C161.489 59.096 161.661 59.5059 161.682 60.0453V62.5912C161.682 63.109 161.747 63.4974 161.854 63.7563V63.821H161.21H161.189ZM159.344 63.3895C159.73 63.3895 160.095 63.3032 160.395 63.109C160.717 62.9149 160.931 62.656 161.082 62.3323V61.1457H160.03C159.43 61.1457 158.979 61.2535 158.636 61.4693C158.293 61.685 158.143 61.9655 158.143 62.3323C158.143 62.6344 158.25 62.8933 158.486 63.0875C158.722 63.2816 159.001 63.3895 159.365 63.3895H159.344Z" fill="#E1CDAD"/>
<path d="M163.913 63.8209H163.312V56.1831H163.913V63.8209Z" fill="#E1CDAD"/>
<path d="M172.108 60.347H168.74V63.3029H172.623V63.8207H168.139V56.5713H172.601V57.0891H168.74V59.8292H172.108V60.347Z" fill="#E1CDAD"/>
<path d="M176.978 62.4618C176.978 62.1597 176.849 61.9224 176.613 61.7498C176.377 61.5772 176.012 61.4261 175.54 61.3183C175.068 61.2104 174.704 61.1025 174.425 60.9731C174.167 60.8436 173.974 60.6926 173.846 60.4984C173.717 60.3042 173.653 60.0884 173.653 59.808C173.653 59.3764 173.824 59.0312 174.189 58.7508C174.532 58.4703 175.004 58.3408 175.54 58.3408C176.141 58.3408 176.613 58.4918 176.978 58.7939C177.342 59.096 177.514 59.4843 177.514 59.959H176.913C176.913 59.6354 176.785 59.3765 176.527 59.1823C176.27 58.9881 175.926 58.8586 175.54 58.8586C175.154 58.8586 174.832 58.9449 174.596 59.1175C174.36 59.2901 174.253 59.5275 174.253 59.808C174.253 60.0884 174.36 60.2826 174.554 60.4337C174.747 60.5847 175.111 60.7141 175.626 60.8436C176.141 60.9731 176.527 61.1025 176.785 61.232C177.042 61.3614 177.235 61.534 177.364 61.7282C177.492 61.9224 177.557 62.1597 177.557 62.4402C177.557 62.8933 177.364 63.2601 176.999 63.5406C176.634 63.821 176.162 63.9505 175.562 63.9505C174.94 63.9505 174.425 63.7995 174.039 63.4974C173.653 63.1953 173.459 62.807 173.459 62.3539H174.06C174.082 62.6991 174.232 62.9796 174.489 63.1738C174.768 63.368 175.111 63.4758 175.562 63.4758C175.969 63.4758 176.313 63.3895 176.57 63.1953C176.827 63.0012 176.956 62.7854 176.956 62.5049L176.978 62.4618Z" fill="#E1CDAD"/>
<path d="M179.809 57.0679V58.4487H180.925V58.945H179.809V62.5481C179.809 62.8502 179.874 63.0659 179.981 63.2169C180.088 63.368 180.26 63.4327 180.517 63.4327C180.624 63.4327 180.774 63.4327 180.989 63.3895V63.8642C180.86 63.9289 180.646 63.9505 180.388 63.9505C179.981 63.9505 179.68 63.8426 179.509 63.6053C179.316 63.368 179.23 63.0228 179.23 62.5481V58.945H178.243V58.4487H179.23V57.0679H179.831H179.809Z" fill="#E1CDAD"/>
<path d="M185.536 63.4802C185.472 63.3076 185.429 63.0703 185.429 62.7251C185.215 63.0056 184.957 63.1997 184.635 63.3508C184.314 63.5018 183.97 63.5665 183.606 63.5665C183.091 63.5665 182.683 63.4155 182.362 63.135C182.04 62.8545 181.89 62.4877 181.89 62.0346C181.89 61.5168 182.104 61.0853 182.533 60.7833C182.962 60.4812 183.563 60.3302 184.357 60.3302H185.429V59.7261C185.429 59.3377 185.3 59.0356 185.086 58.8199C184.85 58.6041 184.507 58.4962 184.056 58.4962C183.649 58.4962 183.305 58.6041 183.027 58.8199C182.748 59.0356 182.619 59.2945 182.619 59.5966H182.018C182.018 59.1651 182.211 58.7983 182.619 58.4747C183.005 58.151 183.499 58 184.078 58C184.657 58 185.15 58.151 185.494 58.4531C185.837 58.7551 186.008 59.1651 186.03 59.7045V62.2504C186.03 62.7682 186.094 63.1566 186.201 63.4155V63.4802H185.558H185.536ZM183.67 63.0487C184.056 63.0487 184.421 62.9624 184.721 62.7682C185.043 62.574 185.258 62.3151 185.408 61.9915V60.8048H184.357C183.756 60.8048 183.305 60.9127 182.962 61.1285C182.619 61.3442 182.469 61.6247 182.469 61.9915C182.469 62.2936 182.576 62.5525 182.812 62.7466C183.048 62.9408 183.327 63.0487 183.692 63.0487H183.67Z" fill="#E1CDAD"/>
<path d="M188.497 57.0679V58.4487H189.613V58.945H188.497V62.5481C188.497 62.8502 188.561 63.0659 188.669 63.2169C188.776 63.368 188.948 63.4327 189.205 63.4327C189.312 63.4327 189.462 63.4327 189.677 63.3895V63.8642C189.548 63.9289 189.334 63.9505 189.076 63.9505C188.669 63.9505 188.368 63.8426 188.197 63.6053C188.004 63.368 187.918 63.0228 187.918 62.5481V58.945H186.931V58.4487H187.918V57.0679H188.519H188.497Z" fill="#E1CDAD"/>
<path d="M192.916 63.9289C192.466 63.9289 192.058 63.821 191.672 63.5837C191.286 63.3464 191.007 63.0443 190.814 62.6344C190.599 62.2244 190.514 61.7714 190.514 61.2751V61.0594C190.514 60.5415 190.621 60.0669 190.814 59.6569C191.007 59.247 191.286 58.9234 191.651 58.686C192.015 58.4487 192.401 58.3408 192.809 58.3408C193.453 58.3408 193.967 58.5566 194.354 59.0097C194.74 59.4628 194.933 60.0669 194.933 60.8436V61.1672H191.114V61.2751C191.114 61.8792 191.286 62.397 191.629 62.807C191.972 63.2169 192.423 63.4111 192.938 63.4111C193.26 63.4111 193.538 63.3464 193.774 63.2385C194.01 63.1306 194.246 62.9364 194.439 62.6775L194.804 62.958C194.375 63.5837 193.731 63.9073 192.916 63.9073V63.9289ZM192.809 58.8586C192.359 58.8586 191.994 59.0312 191.672 59.3549C191.35 59.6785 191.179 60.1316 191.114 60.671H194.332V60.6063C194.332 60.0884 194.16 59.6569 193.882 59.3333C193.603 59.0097 193.238 58.8371 192.788 58.8371L192.809 58.8586Z" fill="#E1CDAD"/>
</g>
<defs>
<clipPath id="clip0_355_1050">
<rect width="211" height="66" fill="white"/>
</clipPath>
</defs>
</svg>
